HIERARCHY
ROOT Hips
{
     OFFSET 1.88212 96.90440 -13.34250
     CHANNELS 6 Xposition Yposition Zposition Zrotation Xrotation Yrotation
     JOINT Spine
     {
          OFFSET 0.00000 11.89050 0.00000
          CHANNELS 3 Zrotation Xrotation Yrotation
          JOINT Spine1
          {
               OFFSET -0.00000 25.65740 0.12766
               CHANNELS 3 Zrotation Xrotation Yrotation
               JOINT HEad
               {
                    OFFSET 0.00000 8.73416 0.01134
                    CHANNELS 3 Zrotation Xrotation Yrotation
                    End Site
                    {
                         OFFSET -0.29000 12.77420 2.51395
                    }
               }
               JOINT LeftShoulder1
               {
                    OFFSET 8.99000 -0.36225 -0.22000
                    CHANNELS 3 Zrotation Xrotation Yrotation
                    JOINT LeftArm
                    {
                         OFFSET 10.28270 -0.00338 0.32212
                         CHANNELS 3 Zrotation Xrotation Yrotation
                         JOINT LeftForeArm
                         {
                              OFFSET 32.76690 0.09914 -1.42434
                              CHANNELS 3 Zrotation Xrotation Yrotation
                              JOINT LeftHand
                              {
                                   OFFSET 27.56430 0.08536 1.02216
                                   CHANNELS 3 Zrotation Xrotation Yrotation
                                   End Site
                                   {
                                        OFFSET 16.74430 -0.60000 1.50291
                                   }
                              }
                         }
                    }
               }
               JOINT RightShoulder
               {
                    OFFSET -8.99000 -0.36225 -0.22000
                    CHANNELS 3 Zrotation Xrotation Yrotation
                    JOINT RightArm
                    {
                         OFFSET -10.28270 -0.00338 0.32212
                         CHANNELS 3 Zrotation Xrotation Yrotation
                         JOINT RightForeArm
                         {
                              OFFSET -32.89710 0.09914 -1.42434
                              CHANNELS 3 Zrotation Xrotation Yrotation
                              JOINT RightHand
                              {
                                   OFFSET -27.49210 0.08536 1.02216
                                   CHANNELS 3 Zrotation Xrotation Yrotation
                                   End Site
                                   {
                                        OFFSET -16.63120 -0.60000 1.50291
                                   }
                              }
                         }
                    }
               }
          }
     }
     JOINT LeftUpLeg
     {
          OFFSET 8.94580 -8.66707 0.10165
          CHANNELS 3 Zrotation Xrotation Yrotation
          JOINT LeftLeg
          {
               OFFSET 0.00000 -44.42270 1.37270
               CHANNELS 3 Zrotation Xrotation Yrotation
               JOINT LeftFoot
               {
                    OFFSET -0.25355 -42.09240 -1.46059
                    CHANNELS 3 Zrotation Xrotation Yrotation
                    JOINT LeftToes
                    {
                         OFFSET -0.04000 -4.41509 8.49910
                         CHANNELS 3 Zrotation Xrotation Yrotation
                         End Site
                         {
                              OFFSET 0.08000 -0.04745 9.77979
                         }
                    }
               }
          }
     }
     JOINT RightUpLeg
     {
          OFFSET -8.94580 -8.66707 0.10165
          CHANNELS 3 Zrotation Xrotation Yrotation
          JOINT RightLeg
          {
               OFFSET 0.00000 -44.42270 1.37270
               CHANNELS 3 Zrotation Xrotation Yrotation
               JOINT RightFoot
               {
                    OFFSET 0.25355 -42.09240 -1.46059
                    CHANNELS 3 Zrotation Xrotation Yrotation
                    JOINT RightToes
                    {
                         OFFSET 0.04000 -4.41509 8.49910
                         CHANNELS 3 Zrotation Xrotation Yrotation
                         End Site
                         {
                              OFFSET -0.08000 -0.13745 9.77979
                         }
                    }
               }
          }
     }
}
MOTION
Frames: 10
Frame Time: 0.01667
-1.04298 45.48392 -121.86426 15.89350 -0.71145 -6.87886 -15.84269 29.80602 1.42641 -0.02592 0.03426 0.00927 -7.17367 -29.74067 38.70453 -9.99753 10.71635 6.77677 -186.34953 -64.23155 -154.44762 -56.29646 59.16426 -88.34731 8.01988 19.99296 -3.48580 -2.94316 11.24633 14.16914 71.39717 -14.28249 96.85154 24.93875 35.99701 92.12270 -0.64268 11.83802 3.98107 36.67928 -39.85439 2.76570 9.74333 66.85706 5.26435 -10.69688 -0.39699 -0.01429 -21.37169 -7.90149 -2.70100 -59.44075 -63.74730 -34.64887 -203.31921 50.76391 197.29289 0.79901 0.04171 -0.08199 -47.80781 -75.92287 -41.27357 
-4.01780 49.21175 -119.53230 16.45753 -0.72851 -7.41244 -17.18852 25.92460 3.73511 -0.10564 0.00774 0.06440 -10.16998 -26.19461 38.96722 -13.98946 1.82770 9.76384 -173.18951 -74.29488 -147.79080 -54.90885 58.80355 -88.97897 2.67595 9.84824 0.84991 -6.71860 2.86728 19.03465 75.02847 -16.31555 86.96967 24.25992 35.24752 92.25989 -4.71219 9.18628 -0.62154 36.57915 -34.68079 6.04490 3.60985 62.80925 12.75975 -26.76828 0.55214 -0.13924 -13.25659 3.94365 4.02142 -48.68872 -59.01957 -28.12398 -203.59746 55.55609 199.92580 -1.93530 0.10109 -0.09430 -14.99081 -90.00000 0.00000 
-6.94745 52.96456 -117.04071 16.46113 -0.39928 -5.74835 -18.12566 22.38580 5.10233 -0.09984 0.02431 0.06221 -11.95266 -22.30879 38.37517 -12.50245 5.17761 8.34214 -173.44672 -72.93672 -148.77522 -53.84437 58.72793 -89.07812 26.53214 20.92783 -10.94920 -4.82165 6.32402 17.33351 74.14306 -16.56393 88.02593 23.96321 34.90045 92.47377 -1.88078 9.92715 1.85505 36.13834 -31.44147 8.52821 -0.96012 59.34102 15.67962 -28.39861 0.14718 -0.06801 -3.72458 -2.60464 -2.25581 -41.27753 -52.18149 -25.88977 -202.72366 63.54983 204.50650 9.13372 -0.74062 0.16423 -33.61629 -90.00000 0.00000 
-9.95599 56.71287 -114.39607 15.88934 0.17180 -2.25733 -18.84776 19.39983 5.81466 -0.08327 0.03911 0.05818 -12.64757 -18.20527 36.82261 -9.85287 8.33318 6.04036 -171.90024 -71.56485 -147.72993 -52.92347 58.78548 -88.95810 12.95403 12.37136 -8.71490 -1.36700 9.47921 14.61657 73.02422 -17.09932 88.46062 23.83858 34.80838 92.72569 -4.61317 8.56989 -0.64169 35.21997 -30.43596 10.22761 -8.81504 58.14857 19.71970 -33.76250 0.18719 -0.16104 -11.09162 -1.11125 3.23821 -35.46397 -44.60282 -26.39181 -200.82829 71.01767 208.64346 20.32222 -0.74854 0.43991 -3.69167 -78.55318 44.47657 
-13.20628 60.63229 -111.53503 14.65368 0.78480 2.77595 -19.20143 17.19349 6.18595 -0.05584 0.04799 0.06222 -12.55923 -14.02835 34.13171 -6.15495 10.95769 2.88245 -168.71989 -70.21867 -144.85883 -52.18940 58.61969 -88.69592 20.64569 17.31401 -8.08253 3.66602 11.99967 10.79987 71.44669 -17.90967 88.15379 23.67335 35.08437 93.46175 -3.54940 8.86494 1.56840 34.74501 -30.64353 11.64796 -13.81298 56.08401 19.56941 -30.27009 0.00908 0.02621 -17.93763 -8.97356 1.72820 -29.66578 -36.97944 -28.17668 -198.27585 78.59486 212.00479 31.74454 -0.68749 0.62918 -48.72421 -63.76544 5.42672 
-16.43030 64.36660 -108.66905 12.69671 1.21324 9.11756 -18.17916 15.64634 5.01228 0.02166 0.03355 -0.02871 -12.39864 -9.89114 31.58351 -2.85349 13.17605 -0.18386 -165.36461 -68.82254 -141.70198 -51.46989 58.61041 -88.49606 12.31662 12.20963 -6.79000 8.47782 13.95423 6.96809 69.88566 -18.71344 87.41725 23.44474 35.59880 94.53457 -5.36957 8.06567 0.07037 34.08665 -32.29128 12.47693 -23.03393 54.95858 21.94908 -30.07151 0.02938 0.00538 -22.53858 -9.79749 -3.58130 -23.44722 -29.93633 -30.82106 -341.64694 90.00000 360.00000 14.92357 0.86146 -0.59577 -26.75137 -53.25301 -0.92593 
-19.50864 67.85185 -105.87966 9.89850 1.23202 16.39262 -15.75822 14.74319 2.26610 0.02903 0.03025 -0.03139 -12.12914 -6.16762 29.29992 0.04679 14.78381 -2.87679 -162.17438 -67.44358 -138.64389 -50.86351 58.48052 -88.33155 16.39505 15.14728 -5.95941 12.93125 15.17583 3.44096 68.40051 -19.42122 86.37966 23.09737 36.33903 95.95757 -5.01871 8.34936 1.40019 34.10389 -34.48628 13.31419 -26.40054 54.19341 18.14087 -30.06222 0.03673 -0.01169 -28.25484 -13.71954 -6.31124 -16.33501 -24.17837 -33.83752 -387.11307 84.86954 408.59677 -1.18022 1.08115 -0.20357 -8.26628 -40.23704 -7.60631 
-22.59340 71.11633 -103.14023 7.55839 0.90936 22.66222 -13.67601 13.97517 -0.04873 0.02943 0.02803 -0.02843 -11.85357 -2.88031 27.29160 2.47783 15.92365 -4.97992 -159.04059 -66.05458 -135.51704 -50.26384 58.42728 -88.34528 11.22322 12.23468 -4.96126 16.76079 15.88728 0.58361 67.12484 -20.19027 85.16373 22.70981 37.14903 97.53004 -6.23504 7.70450 0.48009 34.20434 -35.91761 15.65033 -26.26334 53.66418 10.58121 -30.00964 0.00440 0.01490 -17.38247 -12.40536 -5.60011 -10.05545 -20.15033 -35.64843 -389.65427 75.67976 410.31314 -3.91724 0.05549 -0.13512 -14.99444 -27.35982 -15.66961 
-25.46464 74.01075 -100.61296 5.58315 0.36956 27.95708 -11.78201 13.33158 -1.92784 0.02684 0.02586 -0.02716 -11.60210 -0.03519 25.52287 4.43387 16.68462 -6.71992 -156.54451 -64.76897 -133.02222 -49.77781 58.25727 -88.39336 13.39597 13.88785 -4.20623 19.86219 16.18900 -1.79414 66.15684 -20.78393 83.94971 22.29306 37.99981 99.11519 -6.10450 8.12366 1.08723 34.36765 -36.57008 19.20705 -22.30153 52.85823 -0.92122 -30.00722 -0.00060 0.02383 -16.18426 -12.03379 -4.34192 -5.24140 -17.24857 -36.26663 -394.01746 66.47663 409.76712 -3.39923 -0.05893 -0.11830 -2.46105 -31.86158 -14.76007 
-28.17677 76.53243 -98.31871 3.93315 -0.27649 32.33619 -10.03561 12.80673 -3.39062 0.02366 0.02403 -0.02571 -11.38526 2.36474 23.96148 5.92257 17.13395 -8.14452 -154.64389 -63.59921 -131.14601 -49.36766 58.08897 -88.46439 10.17203 12.08050 -3.43895 22.24840 16.19952 -3.66715 65.50017 -21.22421 82.85104 21.89093 38.78787 100.51810 -6.80550 7.91278 0.33750 33.45013 -37.01070 22.96364 -21.94960 53.13615 -9.43005 -24.61767 0.14067 0.01484 -12.54033 -11.47073 -1.69574 -1.18098 -15.05209 -35.36475 -395.14133 60.29598 404.57437 -3.83000 -0.02279 0.01411 -12.86456 -21.17938 -19.75616 
